<svg width="26" height="23" viewBox="0 0 26 23" fill="none" xmlns="http://www.w3.org/2000/svg">
<path d="M12.9332 1.99291C13.8951 1.99291 14.805 2.61348 15.6109 3.85461L23.1243 16.9858L23.1762 17.0851C23.6702 17.7553 23.8522 18.2518 23.8522 18.7979C23.8522 20.0638 22.7343 21.0071 21.2784 21.0071H4.61368C3.13181 21.0071 2.03991 20.0638 2.03991 18.7979C2.03991 18.2518 2.24789 17.7553 2.71585 17.0851L2.76784 16.9858L10.2812 3.85461C11.0611 2.61348 11.971 1.99291 12.9329 1.99291M12.9329 1C11.5811 1 10.3592 1.79433 9.37126 3.35816L1.85792 16.5142C1.28597 17.3085 1 18.0035 1 18.7979C1 20.6348 2.63785 22 4.61368 22H21.2522C23.254 22 24.8659 20.6596 24.8659 18.7979C24.8659 18.0035 24.5539 17.3085 24.008 16.5142L16.4946 3.35816C15.5067 1.79433 14.2848 1 12.9329 1Z" fill="#5D5D5D"/>
<path d="M12.9332 1.99291C13.8951 1.99291 14.805 2.61348 15.6109 3.85461L23.1243 16.9858L23.1762 17.0851C23.6702 17.7553 23.8522 18.2518 23.8522 18.7979C23.8522 20.0638 22.7343 21.0071 21.2784 21.0071H4.61368C3.13181 21.0071 2.03991 20.0638 2.03991 18.7979C2.03991 18.2518 2.24789 17.7553 2.71585 17.0851L2.76784 16.9858L10.2812 3.85461C11.0611 2.61348 11.971 1.99291 12.9329 1.99291M12.9329 1C11.5811 1 10.3592 1.79433 9.37126 3.35816L1.85792 16.5142C1.28597 17.3085 1 18.0035 1 18.7979C1 20.6348 2.63785 22 4.61368 22H21.2522C23.254 22 24.8659 20.6596 24.8659 18.7979C24.8659 18.0035 24.5539 17.3085 24.008 16.5142L16.4946 3.35816C15.5067 1.79433 14.2848 1 12.9329 1Z" stroke="#5D5D5D" stroke-width="0.4"/>
<path d="M11.7374 7.2305C11.7114 6.9078 11.8414 6.60993 12.0754 6.3617C12.5434 5.91489 13.3233 5.91489 13.7912 6.3617C14.0512 6.60993 14.1812 6.95745 14.1292 7.30496V7.37943L13.3493 14.3546C13.3233 14.578 13.1413 14.7269 12.9333 14.7269C12.7513 14.7269 12.5693 14.5284 12.5434 14.3546L11.7114 7.37943C11.7114 7.32979 11.7114 7.28014 11.7374 7.2305Z" fill="#5D5D5D" stroke="#5D5D5D" stroke-width="0.4"/>
<path d="M14.1552 16.8121C14.1552 17.4564 13.6082 17.9787 12.9333 17.9787C12.2585 17.9787 11.7114 17.4564 11.7114 16.8121C11.7114 16.1677 12.2585 15.6454 12.9333 15.6454C13.6082 15.6454 14.1552 16.1677 14.1552 16.8121Z" fill="#5D5D5D" stroke="#5D5D5D" stroke-width="0.4"/>
</svg>
