<svg width="24" height="24" viewBox="0 0 24 24" fill="none" xmlns="http://www.w3.org/2000/svg">
<path d="M0.427792 15.5483C0.857946 15.8224 1.42841 15.6941 1.70256 15.2649L7.35087 6.3886L8.92102 9.08029L0.149715 22.5738C-0.128131 23.0012 -0.00628461 23.5735 0.420177 23.8504C0.576177 23.952 0.749715 24 0.922331 24C1.22418 24 1.52048 23.8523 1.69679 23.58L9.9611 10.8655L13.0479 16.1575C13.2103 16.4363 13.5085 16.6108 13.8316 16.6154H13.8454C14.1629 16.6154 14.4593 16.452 14.6282 16.1815L16.6829 12.8944L18.5863 16.1575C18.7525 16.4428 19.0469 16.5803 19.3876 16.6154C19.7171 16.6144 20.0217 16.4363 20.1851 16.1501L23.8774 9.6886C24.1303 9.24644 23.9762 8.68244 23.534 8.42952C23.0928 8.17844 22.5279 8.33075 22.2749 8.77291L19.3763 13.8461L17.7886 11.1249L23.8599 1.41229C24.1294 0.98029 23.9983 0.410751 23.5663 0.140289C23.1343 -0.129249 22.5648 0.000904832 22.2943 0.433828L16.7383 9.32306L13.7208 4.15014C13.5593 3.87321 13.2657 3.7006 12.9454 3.69229C12.626 3.67383 12.3242 3.84367 12.1497 4.11229L10.0469 7.34675L8.18233 4.15014C8.01987 3.87229 7.72448 3.69898 7.40348 3.69229C7.07672 3.7126 6.77948 3.84829 6.60595 4.11967L0.144177 14.2735C-0.129054 14.7037 -0.00259226 15.2741 0.427562 15.5483H0.427792ZM12.881 6.37475L15.6327 11.0926L13.8733 13.9071L11.0884 9.13198L12.881 6.37475Z" fill="#5D5D5D"/>
</svg>
