<svg width="27" height="21" viewBox="0 0 27 21" fill="none" xmlns="http://www.w3.org/2000/svg">
<g clip-path="url(#clip0_321_273)">
<path d="M18.2025 17.2772C18.4047 17.5141 18.6744 17.6156 18.9441 17.6156C19.18 17.6156 19.3823 17.5479 19.5845 17.3787L26.6632 11.253C26.8654 11.0838 27.0002 10.8131 27.0002 10.5085C27.0002 10.2377 26.8654 9.96696 26.6632 9.7639L19.5845 3.63819C19.18 3.29976 18.5733 3.3336 18.2362 3.73972C17.8991 4.14585 17.9328 4.75503 18.3373 5.09347L24.5396 10.5082L18.3036 15.8893C17.8991 16.2616 17.8654 16.8708 18.2025 17.2769V17.2772Z" fill="#5D5D5D" stroke="#5D5D5D" stroke-width="0.3"/>
<path d="M7.38202 17.3787C7.55056 17.5479 7.78652 17.6156 8.02247 17.6156C8.29214 17.6156 8.5618 17.5141 8.76404 17.2772C9.10112 16.8711 9.06742 16.2619 8.66292 15.9234L2.42697 10.5085L8.62921 5.12731C9.03371 4.78888 9.06742 4.17969 8.73034 3.77357C8.39326 3.36744 7.78652 3.3336 7.38202 3.67204L0.337079 9.76362C0.134831 9.93283 0 10.2036 0 10.5082C0 10.7789 0.134831 11.0497 0.337079 11.2527L7.38202 17.3787Z" fill="#5D5D5D" stroke="#5D5D5D" stroke-width="0.3"/>
<path d="M11.6628 21H11.8313C12.3032 21 12.7077 20.6616 12.7752 20.1877L16.0785 1.13375C16.1796 0.592255 15.8089 0.118443 15.3032 0.0169122C14.7976 -0.0846188 14.292 0.287662 14.1909 0.795317L10.8875 19.8493C10.7864 20.3908 11.1235 20.8985 11.6628 21Z" fill="#5D5D5D" stroke="#5D5D5D" stroke-width="0.3"/>
</g>
<defs>
<clipPath id="clip0_321_273">
<rect width="27" height="21" fill="white"/>
</clipPath>
</defs>
</svg>
