<svg width="26" height="25" viewBox="0 0 26 25" fill="none" xmlns="http://www.w3.org/2000/svg">
<g clip-path="url(#clip0_321_270)">
<path d="M26 12.5011C26 12.3384 25.9098 12.1915 25.7665 12.1191L20.7857 9.61996L25.7665 7.12084C25.9101 7.04873 26 6.90148 26 6.73882C26 6.57615 25.9098 6.42918 25.7665 6.35679L13.1865 0.0445878C13.0697 -0.0148626 12.9324 -0.0148626 12.8157 0.0445878L0.233751 6.35734C0.090196 6.42945 0 6.5767 0 6.73909C0 6.90148 0.090196 7.04873 0.23348 7.12111L5.2143 9.62023L0.23348 12.1191C0.0899251 12.1912 0 12.3384 0 12.5011C0 12.6638 0.090196 12.8107 0.23348 12.8831L5.2143 15.3822L0.23348 17.8811C0.0899251 17.9532 0 18.1005 0 18.2631C0 18.4258 0.090196 18.5728 0.23348 18.6451L12.8157 24.9565C12.8742 24.9862 12.9376 25.0003 13.0009 25.0003C13.0643 25.0003 13.128 24.986 13.1862 24.9565L25.766 18.6451C25.9095 18.573 25.9995 18.4258 25.9995 18.2631C25.9995 18.1005 25.9093 17.9535 25.766 17.8811L20.7852 15.382L25.766 12.8829C25.9095 12.8107 25.9995 12.6635 25.9995 12.5008L26 12.5011ZM13.0015 0.902766L24.6354 6.73937L19.67 9.23188C19.6649 9.23436 19.6611 9.23711 19.6573 9.23821L13.0018 12.5784L1.3654 6.73909L13.0015 0.902766ZM12.8149 13.4339C12.8734 13.4636 12.9368 13.4776 13.0001 13.4776C13.0635 13.4776 13.1272 13.4633 13.1854 13.4339L15.6448 12.1992L18.3301 13.5462C19.0335 13.8985 19.7369 14.2519 20.4404 14.6042L17.1925 16.2335C13.3149 14.2868 9.43618 12.3426 5.55748 10.3969L6.16068 10.095L12.8149 13.4339ZM4.61164 10.8714C8.49061 12.8171 12.369 14.7624 16.2466 16.708L13.0001 18.3363L1.36513 12.5008L4.61164 10.8714ZM24.6351 18.2628L13.0012 24.0994L1.36621 18.2628L6.16177 15.8567L12.8162 19.1942C12.8747 19.224 12.9381 19.238 13.0015 19.238C13.0649 19.238 13.1285 19.2237 13.1868 19.1942L19.8399 15.8567L24.6349 18.2628H24.6351ZM21.3886 14.1305C20.4934 13.6816 19.5985 13.2327 18.702 12.7835C17.9986 12.4312 17.2951 12.0778 16.5917 11.7255L19.8396 10.0961L24.6351 12.5022L21.3886 14.1316V14.1302V14.1305Z" fill="#5D5D5D" stroke="#5D5D5D" stroke-width="0.75"/>
</g>
<defs>
<clipPath id="clip0_321_270">
<rect width="26" height="25" fill="white"/>
</clipPath>
</defs>
</svg>
