<svg width="25" height="25" viewBox="0 0 25 25" fill="none" xmlns="http://www.w3.org/2000/svg">
<g clip-path="url(#clip0_335_886)">
<path d="M23.1713 12.4998C23.1713 18.3842 18.3843 23.1715 12.5004 23.1715C6.61651 23.1715 1.82874 18.3842 1.82874 12.4998C1.82874 6.61538 6.61609 1.82806 12.5004 1.82806C14.6809 1.82806 16.7591 2.48277 18.5187 3.69108L16.4094 3.99906L16.674 5.80815L21.7196 5.07044L20.9794 0.0252785L19.1704 0.290281L19.4354 2.09685C17.399 0.732655 15.0053 0 12.4996 0C5.60714 0 0 5.60803 0 12.5002C0 19.3928 5.60798 25 12.5004 25C19.3929 25 25 19.3924 25 12.4998H23.1713ZM9.29201 4.57035L7.6065 5.27857L11.5648 14.6956L20.9823 10.7366L20.2746 9.05096L12.5417 12.3018L9.29201 4.57035Z" fill="#5D5D5D"/>
</g>
<defs>
<clipPath id="clip0_335_886">
<rect width="25" height="25" fill="white"/>
</clipPath>
</defs>
</svg>
